<svg xmlns:xlink="http://www.w3.org/1999/xlink" xmlns="http://www.w3.org/2000/svg" width="224" height="151" viewBox="0 0 224 151" fill="none">
<path d="M154.813 26.12C154.813 26.4841 154.828 26.9034 154.813 27.2639C154.828 27.4716 154.813 27.6244 154.813 27.8359V54.9091C154.813 59.7527 150.887 63.6793 146.043 63.6793C141.199 63.6793 137.273 59.7527 137.273 54.9091V27.6452C137.273 22.9069 133.432 19.0657 128.693 19.0657C123.955 19.0657 120.114 22.9069 120.114 27.6452V123.927C120.114 124.116 120.125 124.313 120.114 124.499C120.125 124.818 120.114 125.13 120.114 125.452C120.114 139.562 108.675 151 94.5657 151C80.4559 151 69.0177 139.562 69.0177 125.452C69.0177 125.169 69.0086 124.779 69.0177 124.499C69.0086 124.337 69.0177 124.282 69.0177 124.117V98.1881C69.0177 93.4498 72.8589 89.6086 77.5972 89.6086C82.3356 89.6086 86.1768 93.4498 86.1768 98.1881V124.499C86.1768 129.027 89.8472 132.697 94.375 132.697C98.9028 132.697 102.573 129.027 102.573 124.499V27.8359C102.573 27.6244 102.559 27.4716 102.573 27.2639C102.558 26.9034 102.573 26.4841 102.573 26.12C102.573 11.6943 114.268 0 128.693 0C143.119 0 154.813 11.6943 154.813 26.12Z" fill="white"/>
<path d="M8.57955 49.1894C3.84119 49.1894 0 53.0306 0 57.7689V93.9937C0 98.732 3.84119 102.573 8.57955 102.573C13.3179 102.573 17.1591 98.732 17.1591 93.9937V57.7689C17.1591 53.0306 13.3179 49.1894 8.57955 49.1894Z" fill="white"/>
<path d="M43.279 37.75C38.5407 37.75 34.6995 41.5912 34.6995 46.3295V105.433C34.6995 110.171 38.5407 114.013 43.279 114.013C48.0174 114.013 51.8586 110.171 51.8586 105.433V46.3295C51.8586 41.5912 48.0174 37.75 43.279 37.75Z" fill="white"/>
<path d="M69.0177 27.6452C69.0177 22.9069 72.8589 19.0657 77.5972 19.0657C82.3356 19.0657 86.1768 22.9069 86.1768 27.6452V67.3018C86.1768 72.0401 82.3356 75.8813 77.5972 75.8813C72.8589 75.8813 69.0177 72.0401 69.0177 67.3018V27.6452Z" fill="white"/>
<path d="M137.654 84.4609C137.654 79.7225 141.495 75.8813 146.234 75.8813C150.972 75.8813 154.813 79.7225 154.813 84.4609V124.117C154.813 128.856 150.972 132.697 146.234 132.697C141.495 132.697 137.654 128.856 137.654 124.117V84.4609Z" fill="white"/>
<path d="M171.591 46.3295C171.591 41.5912 175.432 37.75 180.17 37.75C184.909 37.75 188.75 41.5912 188.75 46.3295V105.433C188.75 110.171 184.909 114.013 180.17 114.013C175.432 114.013 171.591 110.171 171.591 105.433V46.3295Z" fill="white"/>
<path d="M206.29 57.7689C206.29 53.0306 210.132 49.1894 214.87 49.1894C219.608 49.1894 223.45 53.0306 223.45 57.7689V93.9937C223.45 98.732 219.608 102.573 214.87 102.573C210.132 102.573 206.29 98.732 206.29 93.9937V57.7689Z" fill="white"/>
</svg>