<svg width="26" height="26" viewBox="0 0 26 26" fill="none" xmlns="http://www.w3.org/2000/svg">
<path d="M25.2018 23.6131L23.3524 25.4627C23.0221 25.7914 22.0549 25.9992 22.0259 25.9992C16.1715 26.0485 10.535 23.7495 6.39288 19.6057C2.23883 15.4518 -0.0625711 9.79239 0.00129462 3.92007C0.00129462 3.91664 0.213327 2.97655 0.542845 2.64954L2.39217 0.798257C3.07077 0.120428 4.36999 -0.18614 5.28019 0.116995L5.67014 0.248124C6.58033 0.551258 7.53134 1.55609 7.78337 2.48086L8.71482 5.899C8.96767 6.82552 8.62796 8.14368 7.95023 8.8215L6.71395 10.058C7.92642 14.5525 11.4504 18.0762 15.9417 19.2905L17.178 18.054C17.8558 17.3761 19.1772 17.0373 20.1036 17.2893L23.5213 18.2226C24.4442 18.473 25.4489 19.4233 25.7537 20.3344L25.8831 20.7245C26.186 21.6358 25.8795 22.9353 25.2018 23.6131Z" fill="#706F76"/>
</svg>
