<svg width="583" height="406" viewBox="0 0 583 406" fill="none" xmlns="http://www.w3.org/2000/svg">
<g clip-path="url(#clip0_2002_21)">
<rect x="339.293" y="76" width="69.2679" height="68.9167" rx="9.12361" transform="rotate(41.7439 339.293 76)" fill="white"/>
<g filter="url(#filter0_f_2002_21)">
<rect x="276.273" y="98.5767" width="56.8471" height="37.1963" fill="#827ACA"/>
</g>
<g filter="url(#filter1_f_2002_21)">
<rect x="362.597" y="104.19" width="61.7598" height="25.9672" fill="#25D6C1"/>
</g>
<g filter="url(#filter2_di_2002_21)">
<rect x="339.686" y="81.7329" width="60.8545" height="60.8545" rx="9.12361" transform="rotate(41.4106 339.686 81.7329)" fill="#2C2B30"/>
<rect x="339.748" y="82.7235" width="59.4509" height="59.4509" rx="8.42179" transform="rotate(41.4106 339.748 82.7235)" stroke="black" stroke-opacity="0.05" stroke-width="1.40363"/>
</g>
<g filter="url(#filter3_i_2002_21)">
<path fill-rule="evenodd" clip-rule="evenodd" d="M341.474 138.059C349.203 138.059 355.468 131.794 355.468 124.065C355.468 116.337 349.203 110.072 341.474 110.072C333.746 110.072 327.48 116.337 327.48 124.065C327.48 131.794 333.746 138.059 341.474 138.059ZM346.804 130.482L347.756 129.529C348.105 129.18 348.263 128.511 348.107 128.042L348.04 127.841C347.883 127.372 347.366 126.883 346.891 126.754L345.131 126.274C344.654 126.144 343.974 126.318 343.625 126.667L342.989 127.304C340.676 126.679 338.862 124.865 338.238 122.551L338.874 121.914C339.223 121.565 339.398 120.887 339.268 120.41L338.789 118.65C338.659 118.174 338.169 117.657 337.701 117.501L337.5 117.433C337.031 117.277 336.362 117.435 336.013 117.784L335.061 118.737C334.891 118.905 334.782 119.391 334.782 119.391C334.749 122.414 335.934 125.328 338.073 127.466C340.205 129.6 343.107 130.783 346.121 130.758C346.136 130.758 346.634 130.651 346.804 130.482Z" fill="white"/>
</g>
</g>
<rect x="339.35" y="76.9909" width="67.8642" height="67.5131" rx="8.4218" transform="rotate(41.7439 339.35 76.9909)" stroke="black" stroke-opacity="0.1" stroke-width="1.40363"/>
<path d="M387.106 124.435L426.045 124.673" stroke="#8D8F9A" stroke-width="1.39937"/>
<path d="M247 129H299" stroke="#8D8F9A" stroke-width="1.39937"/>
<path d="M508.898 59C508.898 109.068 456.796 125.721 425.633 124.85" stroke="#8D8F9A" stroke-width="1.2517"/>
<path d="M424 124.849C444.68 124.306 479.51 149.34 496.381 215.191" stroke="#8D8F9A" stroke-width="1.2517"/>
<path d="M496.925 124.851C486.706 124.851 424 124.851 424 124.851" stroke="#8D8F9A" stroke-width="1.2517"/>
<g filter="url(#filter4_f_2002_21)">
<rect x="467" y="45" width="70.6579" height="197.842" fill="#F2F2F7"/>
</g>
<path d="M247.033 291.474C247.033 286.242 251.275 282 256.508 282H511.559C516.792 282 521.033 286.242 521.033 291.474V392.526C521.033 397.758 516.792 402 511.559 402H256.508C251.275 402 247.033 397.758 247.033 392.526V291.474Z" fill="#F7F6FB"/>
<path d="M247.577 291.474C247.577 286.542 251.575 282.544 256.508 282.544H511.559C516.491 282.544 520.49 286.542 520.49 291.474V392.526C520.49 397.458 516.491 401.456 511.559 401.456H256.508C251.575 401.456 247.577 397.458 247.577 392.526V291.474Z" stroke="black" stroke-opacity="0.1" stroke-width="1.08704"/>
<path d="M264.649 316.41C266.313 316.41 267.128 317.389 267.28 318.693H266.041C265.954 317.834 265.454 317.323 264.584 317.323C263.878 317.323 263.323 317.649 263.323 318.356C263.323 319.084 263.769 319.421 264.932 319.693C266.584 320.074 267.367 320.78 267.367 322.03C267.367 323.389 266.16 324.215 264.704 324.215C262.986 324.215 261.888 323.4 261.736 321.889H262.975C263.171 322.813 263.823 323.302 264.704 323.302C265.486 323.302 266.106 322.878 266.106 322.193C266.106 321.411 265.65 321.008 264.432 320.726C263.008 320.389 262.062 319.856 262.062 318.552C262.062 317.225 263.247 316.41 264.649 316.41ZM269.853 319.171V322.193C269.853 322.389 269.853 322.519 269.864 322.672C269.908 323.237 270.125 323.356 270.908 323.28V324.106C270.603 324.15 270.321 324.172 270.027 324.172C269.125 324.172 268.734 323.835 268.679 323.074C268.669 322.878 268.669 322.628 268.669 322.302V319.171H267.853V318.334H268.669V316.954H269.853V318.334H270.984V319.171H269.853ZM275.397 324.063L275.288 323.226L274.995 323.846C274.603 324.117 274.103 324.215 273.56 324.215C272.538 324.215 271.701 323.628 271.701 322.552C271.701 321.269 272.723 320.574 274.908 320.574H275.277V320.432C275.277 320.215 275.277 320.019 275.256 319.802C275.223 319.334 274.93 319.008 274.245 319.008C273.549 319.008 273.19 319.4 273.125 320.117H271.929C272.005 318.856 272.951 318.139 274.266 318.139C275.756 318.139 276.343 318.769 276.441 319.747C276.462 319.987 276.473 320.291 276.473 320.563V322.595C276.473 323.03 276.495 323.422 276.582 324.063H275.397ZM273.995 323.346C274.745 323.346 275.277 322.835 275.277 321.9V321.367C273.875 321.258 272.962 321.574 272.962 322.454C272.962 323.063 273.364 323.346 273.995 323.346ZM279.418 319.171V322.193C279.418 322.389 279.418 322.519 279.429 322.672C279.473 323.237 279.69 323.356 280.473 323.28V324.106C280.168 324.15 279.886 324.172 279.592 324.172C278.69 324.172 278.298 323.835 278.244 323.074C278.233 322.878 278.233 322.628 278.233 322.302V319.171H277.418V318.334H278.233V316.954H279.418V318.334H280.549V319.171H279.418ZM286.668 318.291V324.063H285.483V323.074L285.081 323.791C284.625 324.117 284.201 324.215 283.625 324.215C282.429 324.215 281.733 323.541 281.603 322.748C281.559 322.454 281.548 322.193 281.548 321.726V318.291H282.733V321.487C282.733 321.671 282.744 321.987 282.777 322.28C282.864 322.911 283.277 323.324 284.016 323.324C284.853 323.324 285.483 322.682 285.483 321.008V318.291H286.668ZM290.055 318.139C291.381 318.139 292.12 318.889 292.25 319.943H291.033C290.913 319.334 290.555 318.976 289.968 318.976C289.402 318.976 289.131 319.291 289.131 319.726C289.131 320.247 289.555 320.465 290.413 320.693C291.674 321.019 292.337 321.519 292.337 322.541C292.337 323.661 291.348 324.215 290.087 324.215C288.805 324.215 287.859 323.639 287.696 322.335H288.902C289.044 323.074 289.533 323.367 290.131 323.367C290.685 323.367 291.131 323.128 291.131 322.628C291.131 322.128 290.739 321.856 289.761 321.595C288.707 321.324 287.924 320.878 287.924 319.867C287.924 318.791 288.772 318.139 290.055 318.139Z" fill="#95949A"/>
<path d="M326.526 316.606C328.265 316.812 329.548 317.954 329.548 320.226C329.548 322.465 328.221 323.802 326.482 324.02C326.102 324.063 325.928 324.063 325.526 324.063H323.145V316.562H325.569C325.971 316.562 326.145 316.562 326.526 316.606ZM326.276 323.063C327.482 322.889 328.265 321.889 328.265 320.226C328.265 318.65 327.515 317.736 326.319 317.562C326.08 317.519 325.819 317.508 325.46 317.508H324.341V323.106H325.417C325.786 323.106 326.036 323.106 326.276 323.063ZM334.002 324.063L333.893 323.226L333.6 323.846C333.208 324.117 332.708 324.215 332.165 324.215C331.143 324.215 330.306 323.628 330.306 322.552C330.306 321.269 331.328 320.574 333.513 320.574H333.882V320.432C333.882 320.215 333.882 320.019 333.86 319.802C333.828 319.334 333.534 319.008 332.85 319.008C332.154 319.008 331.795 319.4 331.73 320.117H330.534C330.61 318.856 331.556 318.139 332.871 318.139C334.361 318.139 334.948 318.769 335.045 319.747C335.067 319.987 335.078 320.291 335.078 320.563V322.595C335.078 323.03 335.1 323.422 335.187 324.063H334.002ZM332.6 323.346C333.35 323.346 333.882 322.835 333.882 321.9V321.367C332.48 321.258 331.567 321.574 331.567 322.454C331.567 323.063 331.969 323.346 332.6 323.346ZM338.023 319.171V322.193C338.023 322.389 338.023 322.519 338.034 322.672C338.077 323.237 338.295 323.356 339.077 323.28V324.106C338.773 324.15 338.49 324.172 338.197 324.172C337.295 324.172 336.903 323.835 336.849 323.074C336.838 322.878 336.838 322.628 336.838 322.302V319.171H336.023V318.334H336.838V316.954H338.023V318.334H339.154V319.171H338.023ZM345.081 321.03C345.081 321.139 345.081 321.302 345.059 321.508H340.917C341.015 322.889 341.646 323.346 342.428 323.346C343.124 323.346 343.667 322.922 343.787 322.193H344.994C344.744 323.563 343.646 324.215 342.385 324.215C340.841 324.215 339.678 323.237 339.678 321.193C339.678 319.367 340.841 318.139 342.504 318.139C344.178 318.139 345.081 319.4 345.081 321.03ZM342.461 319.008C341.646 319.008 341.059 319.563 340.928 320.671H343.852C343.765 319.606 343.298 319.008 342.461 319.008Z" fill="#95949A"/>
<path d="M406.242 324.063H404.525L401.198 317.878C401.231 318.736 401.242 319.704 401.242 320.476V324.063H400.046V316.562H401.731L405.09 322.791C405.068 321.943 405.057 320.943 405.057 320.171V316.562H406.231L406.242 324.063ZM412.811 318.291V324.063H411.626V323.074L411.224 323.791C410.767 324.117 410.344 324.215 409.767 324.215C408.572 324.215 407.876 323.541 407.745 322.748C407.702 322.454 407.691 322.193 407.691 321.726V318.291H408.876V321.487C408.876 321.671 408.887 321.987 408.919 322.28C409.006 322.911 409.42 323.324 410.159 323.324C410.996 323.324 411.626 322.682 411.626 321.008V318.291H412.811ZM422.426 319.552C422.47 319.845 422.481 320.106 422.481 320.574V324.063H421.285V321.008C421.285 320.574 421.274 320.258 421.241 319.965C421.165 319.345 420.785 319.019 420.165 319.019C419.469 319.019 419.002 319.595 419.002 321.161V324.063H417.817V321.008C417.817 320.574 417.806 320.258 417.774 319.965C417.687 319.345 417.317 319.019 416.697 319.019C415.991 319.019 415.534 319.595 415.534 321.161V324.063H414.339V318.291H415.534V319.15L415.926 318.476C416.23 318.236 416.632 318.139 417.154 318.139C418.067 318.139 418.643 318.595 418.861 319.237L419.393 318.476C419.709 318.236 420.111 318.139 420.622 318.139C421.687 318.139 422.296 318.758 422.426 319.552ZM427.077 318.139C428.729 318.139 429.675 319.389 429.675 321.074C429.675 323.193 428.37 324.215 426.881 324.215C426.403 324.215 425.805 324.085 425.511 323.856L425.131 323.28V324.063H423.935V316.073H425.131V319.193L425.566 318.573C425.892 318.302 426.49 318.139 427.077 318.139ZM426.74 323.346C427.696 323.346 428.414 322.617 428.414 321.182C428.414 319.932 427.838 319.008 426.794 319.008C425.903 319.008 425.131 319.573 425.131 321.117V321.411C425.131 322.824 425.979 323.346 426.74 323.346ZM435.708 321.03C435.708 321.139 435.708 321.302 435.686 321.508H431.544C431.642 322.889 432.273 323.346 433.055 323.346C433.751 323.346 434.294 322.922 434.414 322.193H435.621C435.371 323.563 434.273 324.215 433.012 324.215C431.468 324.215 430.305 323.237 430.305 321.193C430.305 319.367 431.468 318.139 433.131 318.139C434.805 318.139 435.708 319.4 435.708 321.03ZM433.088 319.008C432.273 319.008 431.686 319.563 431.555 320.671H434.479C434.392 319.606 433.925 319.008 433.088 319.008ZM439.42 318.149C439.583 318.149 439.703 318.171 439.822 318.215V319.15C438.724 319.073 438.04 319.639 438.04 321.063V324.063H436.844V318.291H438.04V319.269L438.529 318.476C438.79 318.269 439.127 318.149 439.42 318.149Z" fill="#95949A"/>
<path d="M473.176 316.606C474.915 316.812 476.198 317.954 476.198 320.226C476.198 322.465 474.872 323.802 473.132 324.02C472.752 324.063 472.578 324.063 472.176 324.063H469.795V316.562H472.219C472.621 316.562 472.795 316.562 473.176 316.606ZM472.926 323.063C474.132 322.889 474.915 321.889 474.915 320.226C474.915 318.65 474.165 317.736 472.969 317.562C472.73 317.519 472.469 317.508 472.111 317.508H470.991V323.106H472.067C472.437 323.106 472.687 323.106 472.926 323.063ZM482.359 318.291V324.063H481.174V323.074L480.772 323.791C480.315 324.117 479.891 324.215 479.315 324.215C478.119 324.215 477.423 323.541 477.293 322.748C477.25 322.454 477.239 322.193 477.239 321.726V318.291H478.424V321.487C478.424 321.671 478.434 321.987 478.467 322.28C478.554 322.911 478.967 323.324 479.706 323.324C480.543 323.324 481.174 322.682 481.174 321.008V318.291H482.359ZM486.462 318.149C486.625 318.149 486.745 318.171 486.865 318.215V319.15C485.767 319.073 485.082 319.639 485.082 321.063V324.063H483.886V318.291H485.082V319.269L485.571 318.476C485.832 318.269 486.169 318.149 486.462 318.149ZM491.045 324.063L490.936 323.226L490.643 323.846C490.251 324.117 489.751 324.215 489.208 324.215C488.186 324.215 487.349 323.628 487.349 322.552C487.349 321.269 488.371 320.574 490.556 320.574H490.925V320.432C490.925 320.215 490.925 320.019 490.903 319.802C490.871 319.334 490.577 319.008 489.892 319.008C489.197 319.008 488.838 319.4 488.773 320.117H487.577C487.653 318.856 488.599 318.139 489.914 318.139C491.403 318.139 491.99 318.769 492.088 319.747C492.11 319.987 492.121 320.291 492.121 320.563V322.595C492.121 323.03 492.143 323.422 492.23 324.063H491.045ZM489.642 323.346C490.392 323.346 490.925 322.835 490.925 321.9V321.367C489.523 321.258 488.61 321.574 488.61 322.454C488.61 323.063 489.012 323.346 489.642 323.346ZM495.066 319.171V322.193C495.066 322.389 495.066 322.519 495.077 322.672C495.12 323.237 495.338 323.356 496.12 323.28V324.106C495.816 324.15 495.533 324.172 495.24 324.172C494.338 324.172 493.946 323.835 493.892 323.074C493.881 322.878 493.881 322.628 493.881 322.302V319.171H493.066V318.334H493.881V316.954H495.066V318.334H496.196V319.171H495.066ZM497.881 316.28C498.283 316.28 498.588 316.573 498.588 316.965C498.588 317.367 498.283 317.66 497.881 317.66C497.479 317.66 497.185 317.367 497.185 316.965C497.185 316.573 497.479 316.28 497.881 316.28ZM498.479 324.063H497.283V318.291H498.479V324.063ZM502.501 318.139C504.436 318.139 505.425 319.487 505.425 321.171C505.425 322.856 504.436 324.215 502.501 324.215C500.555 324.215 499.576 322.856 499.576 321.171C499.576 319.487 500.555 318.139 502.501 318.139ZM502.501 323.346C503.544 323.346 504.153 322.476 504.153 321.171C504.153 319.867 503.544 319.008 502.501 319.008C501.446 319.008 500.837 319.867 500.837 321.171C500.837 322.476 501.446 323.346 502.501 323.346ZM511.574 319.791C511.596 320.084 511.607 320.345 511.607 320.813V324.063H510.411V320.943C510.411 320.671 510.411 320.421 510.39 320.128C510.335 319.476 509.987 319.019 509.172 319.019C508.346 319.019 507.672 319.671 507.672 321.476V324.063H506.476V318.291H507.672V319.247L508.063 318.584C508.52 318.236 508.944 318.139 509.52 318.139C510.759 318.139 511.466 318.78 511.574 319.791Z" fill="#95949A"/>
<path d="M260.915 331.825H510.392" stroke="#DEDDE2" stroke-width="1.2501"/>
<path d="M396.529 322.874L395.91 323.492C395.8 323.602 395.476 323.672 395.466 323.672C393.508 323.688 391.623 322.919 390.237 321.533C388.848 320.144 388.078 318.251 388.1 316.287C388.1 316.286 388.171 315.971 388.281 315.862L388.899 315.243C389.126 315.016 389.561 314.913 389.865 315.015L389.996 315.059C390.3 315.16 390.618 315.496 390.703 315.805L391.014 316.949C391.099 317.259 390.985 317.699 390.758 317.926L390.345 318.34C390.75 319.843 391.929 321.022 393.431 321.428L393.845 321.014C394.072 320.787 394.513 320.674 394.823 320.758L395.966 321.071C396.275 321.154 396.611 321.472 396.713 321.777L396.756 321.907C396.858 322.212 396.755 322.647 396.529 322.874Z" fill="#95949A"/>
<rect x="260.915" y="337.804" width="40.2206" height="10.8704" rx="1.08704" fill="#E7E6EE"/>
<path d="M271.235 344.904C271.287 345.471 271.365 345.817 271.548 346.065H270.758C270.641 345.771 270.582 345.491 270.53 344.995C270.472 344.519 270.295 344.219 269.885 344.193C269.774 344.187 269.663 344.187 269.552 344.187H268.854V346.065H268.137V341.565H269.689C269.93 341.565 270.093 341.565 270.308 341.591C270.961 341.675 271.45 342.021 271.45 342.791C271.45 343.378 271.091 343.723 270.615 343.867C271.019 344.043 271.189 344.434 271.235 344.904ZM268.854 343.632H269.604C269.787 343.632 269.898 343.632 270.008 343.619C270.4 343.58 270.693 343.358 270.693 342.882C270.693 342.406 270.452 342.21 270.067 342.158C269.95 342.139 269.832 342.132 269.65 342.132H268.854V343.632ZM275.088 344.245C275.088 344.31 275.088 344.408 275.075 344.532H272.59C272.648 345.361 273.027 345.634 273.496 345.634C273.914 345.634 274.24 345.38 274.312 344.943H275.036C274.886 345.765 274.227 346.156 273.47 346.156C272.544 346.156 271.846 345.569 271.846 344.343C271.846 343.247 272.544 342.51 273.542 342.51C274.546 342.51 275.088 343.267 275.088 344.245ZM273.516 343.032C273.027 343.032 272.675 343.365 272.596 344.03H274.351C274.299 343.391 274.018 343.032 273.516 343.032ZM277.185 342.51C278.059 342.51 278.613 343.039 278.698 343.802H277.974C277.87 343.273 277.589 343.032 277.165 343.032C276.663 343.032 276.265 343.43 276.265 344.297C276.265 345.237 276.657 345.634 277.139 345.634C277.55 345.634 277.844 345.387 277.948 344.917H278.678C278.515 345.745 277.915 346.156 277.1 346.156C276.193 346.156 275.509 345.582 275.509 344.35C275.509 343.169 276.278 342.51 277.185 342.51ZM282.298 344.245C282.298 344.31 282.298 344.408 282.285 344.532H279.8C279.859 345.361 280.237 345.634 280.706 345.634C281.124 345.634 281.45 345.38 281.522 344.943H282.246C282.096 345.765 281.437 346.156 280.68 346.156C279.754 346.156 279.056 345.569 279.056 344.343C279.056 343.247 279.754 342.51 280.752 342.51C281.757 342.51 282.298 343.267 282.298 344.245ZM280.726 343.032C280.237 343.032 279.885 343.365 279.806 344.03H281.561C281.509 343.391 281.228 343.032 280.726 343.032ZM283.338 341.395C283.58 341.395 283.762 341.571 283.762 341.806C283.762 342.047 283.58 342.223 283.338 342.223C283.097 342.223 282.921 342.047 282.921 341.806C282.921 341.571 283.097 341.395 283.338 341.395ZM283.697 346.065H282.98V342.602H283.697V346.065ZM287.656 342.602L286.332 346.065H285.497L284.173 342.602H284.962L285.934 345.537L286.893 342.602H287.656ZM291.024 344.245C291.024 344.31 291.024 344.408 291.011 344.532H288.526C288.585 345.361 288.963 345.634 289.433 345.634C289.85 345.634 290.176 345.38 290.248 344.943H290.972C290.822 345.765 290.163 346.156 289.406 346.156C288.48 346.156 287.782 345.569 287.782 344.343C287.782 343.247 288.48 342.51 289.478 342.51C290.483 342.51 291.024 343.267 291.024 344.245ZM289.452 343.032C288.963 343.032 288.611 343.365 288.532 344.03H290.287C290.235 343.391 289.954 343.032 289.452 343.032ZM294.889 341.271V346.065H294.171V345.517L293.91 345.895C293.715 346.052 293.356 346.156 293.004 346.156C292.012 346.156 291.445 345.406 291.445 344.389C291.445 343.123 292.228 342.51 293.121 342.51C293.408 342.51 293.767 342.589 293.943 342.726L294.171 343.071V341.271H294.889ZM293.167 345.634C293.708 345.634 294.171 345.295 294.171 344.369V344.187C294.171 343.345 293.662 343.032 293.199 343.032C292.632 343.032 292.201 343.469 292.201 344.33C292.201 345.08 292.547 345.634 293.167 345.634Z" fill="#95949A"/>
<path d="M313.694 341.473C315.07 341.473 315.859 342.419 315.859 343.815C315.859 345.204 315.07 346.156 313.694 346.156C312.311 346.156 311.522 345.204 311.522 343.815C311.522 342.419 312.311 341.473 313.694 341.473ZM313.694 345.608C314.568 345.608 315.09 344.93 315.09 343.815C315.09 342.693 314.568 342.021 313.694 342.021C312.814 342.021 312.292 342.693 312.292 343.815C312.292 344.93 312.814 345.608 313.694 345.608ZM317.96 342.51C318.834 342.51 319.388 343.039 319.473 343.802H318.749C318.644 343.273 318.364 343.032 317.94 343.032C317.438 343.032 317.04 343.43 317.04 344.297C317.04 345.237 317.431 345.634 317.914 345.634C318.325 345.634 318.618 345.387 318.723 344.917H319.453C319.29 345.745 318.69 346.156 317.875 346.156C316.968 346.156 316.283 345.582 316.283 344.35C316.283 343.169 317.053 342.51 317.96 342.51ZM320.946 343.13V344.943C320.946 345.061 320.946 345.139 320.953 345.23C320.979 345.569 321.11 345.641 321.579 345.595V346.091C321.397 346.117 321.227 346.13 321.051 346.13C320.51 346.13 320.275 345.928 320.242 345.471C320.236 345.354 320.236 345.204 320.236 345.008V343.13H319.746V342.628H320.236V341.799H320.946V342.628H321.625V343.13H320.946ZM324.632 345.491H326.699V346.065H323.562V345.7L325.134 344.115C325.701 343.554 325.949 343.228 325.949 342.797C325.949 342.36 325.701 342.015 325.212 342.015C324.697 342.015 324.443 342.341 324.384 342.934L324.377 342.999H323.66L323.666 342.934C323.758 341.982 324.338 341.467 325.29 341.467C326.243 341.467 326.725 342.021 326.725 342.732C326.725 343.326 326.412 343.743 325.623 344.513L324.632 345.491ZM330.793 344.963H330.225V346.065H329.514V344.963H327.31V344.591L329.488 341.565H330.225V344.389H330.793V344.963ZM329.514 344.389V342.439C329.416 342.608 329.312 342.784 329.175 342.967L328.151 344.389H329.514ZM332.31 343.13V344.943C332.31 345.061 332.31 345.139 332.316 345.23C332.342 345.569 332.473 345.641 332.942 345.595V346.091C332.76 346.117 332.59 346.13 332.414 346.13C331.873 346.13 331.638 345.928 331.605 345.471C331.599 345.354 331.599 345.204 331.599 345.008V343.13H331.109V342.628H331.599V341.799H332.31V342.628H332.988V343.13H332.31ZM336.699 343.502C336.712 343.678 336.718 343.834 336.718 344.115V346.065H336.001V344.193C336.001 344.03 336.001 343.88 335.988 343.704C335.955 343.313 335.746 343.032 335.257 343.039C334.762 343.052 334.357 343.43 334.357 344.513V346.065H333.64V341.238H334.357V343.176L334.592 342.778C334.866 342.569 335.12 342.51 335.466 342.51C336.21 342.51 336.634 342.895 336.699 343.502ZM338.189 345.361L337.576 346.854H336.949L337.465 345.295H338.189V345.361ZM341.466 345.491H343.534V346.065H340.396V345.7L341.968 344.115C342.536 343.554 342.784 343.228 342.784 342.797C342.784 342.36 342.536 342.015 342.046 342.015C341.531 342.015 341.277 342.341 341.218 342.934L341.212 342.999H340.494L340.501 342.934C340.592 341.982 341.173 341.467 342.125 341.467C343.077 341.467 343.56 342.021 343.56 342.732C343.56 343.326 343.247 343.743 342.457 344.513L341.466 345.491ZM345.879 341.473C347.138 341.473 347.562 342.452 347.562 343.815C347.562 345.165 347.138 346.156 345.879 346.156C344.627 346.156 344.196 345.165 344.196 343.815C344.196 342.452 344.627 341.473 345.879 341.473ZM345.879 345.608C346.525 345.608 346.785 344.969 346.785 343.815C346.785 342.647 346.525 342.021 345.879 342.021C345.24 342.021 344.972 342.647 344.972 343.815C344.972 344.969 345.24 345.608 345.879 345.608ZM349.3 345.491H351.368V346.065H348.231V345.7L349.803 344.115C350.37 343.554 350.618 343.228 350.618 342.797C350.618 342.36 350.37 342.015 349.881 342.015C349.366 342.015 349.111 342.341 349.053 342.934L349.046 342.999H348.329L348.335 342.934C348.426 341.982 349.007 341.467 349.959 341.467C350.911 341.467 351.394 342.021 351.394 342.732C351.394 343.326 351.081 343.743 350.292 344.513L349.3 345.491ZM355.461 344.963H354.894V346.065H354.183V344.963H351.978V344.591L354.157 341.565H354.894V344.389H355.461V344.963ZM354.183 344.389V342.439C354.085 342.608 353.981 342.784 353.844 342.967L352.82 344.389H354.183ZM359.137 343.071C360.116 343.071 360.638 343.704 360.638 344.591C360.638 345.595 359.842 346.156 358.981 346.156C358.035 346.156 357.487 345.726 357.396 344.852L357.389 344.787H358.107L358.113 344.852C358.205 345.315 358.459 345.608 358.961 345.608C359.516 345.608 359.861 345.237 359.861 344.624C359.861 344.017 359.535 343.619 358.981 343.619C358.596 343.619 358.329 343.782 358.133 344.2H357.461L357.781 341.565H360.448V342.132H358.361L358.179 343.56L358.433 343.254C358.642 343.13 358.87 343.071 359.137 343.071ZM361.659 342.51C361.933 342.51 362.135 342.706 362.135 342.986C362.135 343.26 361.933 343.463 361.659 343.463C361.378 343.463 361.183 343.26 361.183 342.986C361.183 342.706 361.378 342.51 361.659 342.51ZM361.659 345.204C361.933 345.204 362.135 345.4 362.135 345.68C362.135 345.954 361.933 346.156 361.659 346.156C361.378 346.156 361.183 345.954 361.183 345.68C361.183 345.4 361.378 345.204 361.659 345.204ZM365.268 341.565V346.065H364.551V342.315L363.279 343.045V342.341L364.27 341.734C364.479 341.61 364.668 341.565 364.871 341.565H365.268ZM369.049 343.678C369.629 343.821 369.968 344.2 369.968 344.793C369.968 345.634 369.225 346.156 368.286 346.156C367.359 346.156 366.746 345.726 366.648 344.774L366.642 344.708H367.359L367.366 344.774C367.431 345.328 367.809 345.608 368.318 345.608C368.833 345.608 369.192 345.308 369.192 344.826C369.192 344.33 368.873 344.056 368.207 344.05H368.077V343.521L368.207 343.515C368.716 343.508 369.088 343.215 369.088 342.712C369.088 342.302 368.807 342.021 368.37 342.021C367.927 342.021 367.601 342.308 367.548 342.823L367.542 342.889H366.831L366.838 342.823C366.916 342.021 367.477 341.473 368.449 341.473C369.349 341.473 369.864 341.962 369.864 342.628C369.864 343.149 369.557 343.534 369.049 343.678ZM371.009 342.51C371.283 342.51 371.485 342.706 371.485 342.986C371.485 343.26 371.283 343.463 371.009 343.463C370.729 343.463 370.533 343.26 370.533 342.986C370.533 342.706 370.729 342.51 371.009 342.51ZM371.009 345.204C371.283 345.204 371.485 345.4 371.485 345.68C371.485 345.954 371.283 346.156 371.009 346.156C370.729 346.156 370.533 345.954 370.533 345.68C370.533 345.4 370.729 345.204 371.009 345.204ZM373.758 341.473C375.017 341.473 375.44 342.452 375.44 343.815C375.44 345.165 375.017 346.156 373.758 346.156C372.505 346.156 372.075 345.165 372.075 343.815C372.075 342.452 372.505 341.473 373.758 341.473ZM373.758 345.608C374.403 345.608 374.664 344.969 374.664 343.815C374.664 342.647 374.403 342.021 373.758 342.021C373.119 342.021 372.851 342.647 372.851 343.815C372.851 344.969 373.119 345.608 373.758 345.608ZM378.399 343.678C378.979 343.821 379.319 344.2 379.319 344.793C379.319 345.634 378.575 346.156 377.636 346.156C376.71 346.156 376.097 345.726 375.999 344.774L375.992 344.708H376.71L376.716 344.774C376.781 345.328 377.16 345.608 377.668 345.608C378.184 345.608 378.542 345.308 378.542 344.826C378.542 344.33 378.223 344.056 377.558 344.05H377.427V343.521L377.558 343.515C378.066 343.508 378.438 343.215 378.438 342.712C378.438 342.302 378.158 342.021 377.721 342.021C377.277 342.021 376.951 342.308 376.899 342.823L376.892 342.889H376.181L376.188 342.823C376.266 342.021 376.827 341.473 377.799 341.473C378.699 341.473 379.214 341.962 379.214 342.628C379.214 343.149 378.908 343.534 378.399 343.678Z" fill="black"/>
<path d="M391.531 344.213H390.364V345.524H389.914V344.213H388.746V343.795H389.914V342.471H390.364V343.795H391.531V344.213ZM394.059 341.473C395.122 341.473 395.716 342.119 395.716 343.632C395.716 345.38 394.914 346.156 393.922 346.156C393.087 346.156 392.54 345.674 392.468 344.917L392.461 344.852H393.205L393.218 344.917C393.316 345.38 393.557 345.608 393.975 345.608C394.535 345.608 394.914 345.132 394.959 343.919L394.718 344.323C394.477 344.519 394.229 344.597 393.903 344.597C392.944 344.597 392.416 343.958 392.416 343.097C392.416 342.099 393.14 341.473 394.059 341.473ZM394.066 344.05C394.529 344.05 394.92 343.697 394.92 343.026C394.92 342.452 394.581 342.021 394.066 342.021C393.544 342.021 393.192 342.432 393.192 343.013C393.192 343.586 393.459 344.05 394.066 344.05ZM399.653 341.565V341.923L397.448 346.065H396.679L398.798 342.132H396.352V341.565H399.653ZM403.57 341.565V341.923L401.365 346.065H400.596L402.715 342.132H400.27V341.565H403.57ZM405.811 341.473C406.874 341.473 407.467 342.119 407.467 343.632C407.467 345.38 406.665 346.156 405.674 346.156C404.839 346.156 404.291 345.674 404.219 344.917L404.213 344.852H404.956L404.969 344.917C405.067 345.38 405.309 345.608 405.726 345.608C406.287 345.608 406.665 345.132 406.711 343.919L406.47 344.323C406.228 344.519 405.98 344.597 405.654 344.597C404.696 344.597 404.167 343.958 404.167 343.097C404.167 342.099 404.891 341.473 405.811 341.473ZM405.817 344.05C406.28 344.05 406.672 343.697 406.672 343.026C406.672 342.452 406.333 342.021 405.817 342.021C405.296 342.021 404.943 342.432 404.943 343.013C404.943 343.586 405.211 344.05 405.817 344.05ZM410.524 343.684C410.993 343.834 411.385 344.239 411.385 344.8C411.385 345.784 410.576 346.163 409.721 346.163C408.802 346.163 408.065 345.784 408.065 344.8C408.065 344.239 408.476 343.834 408.952 343.684C408.554 343.534 408.267 343.202 408.267 342.699C408.267 341.956 408.841 341.473 409.767 341.473C410.7 341.473 411.267 341.956 411.267 342.699C411.267 343.208 410.935 343.541 410.524 343.684ZM409.767 342.021C409.278 342.021 409.017 342.328 409.017 342.726C409.017 343.149 409.271 343.45 409.761 343.45C410.25 343.45 410.517 343.149 410.517 342.726C410.517 342.328 410.263 342.021 409.767 342.021ZM409.735 345.615C410.335 345.615 410.609 345.282 410.609 344.806C410.609 344.369 410.348 343.997 409.728 343.997C409.121 343.997 408.834 344.363 408.834 344.806C408.834 345.282 409.141 345.615 409.735 345.615ZM413.639 341.473C414.897 341.473 415.321 342.452 415.321 343.815C415.321 345.165 414.897 346.156 413.639 346.156C412.386 346.156 411.956 345.165 411.956 343.815C411.956 342.452 412.386 341.473 413.639 341.473ZM413.639 345.608C414.284 345.608 414.545 344.969 414.545 343.815C414.545 342.647 414.284 342.021 413.639 342.021C412.999 342.021 412.732 342.647 412.732 343.815C412.732 344.969 412.999 345.608 413.639 345.608ZM418.28 343.678C418.86 343.821 419.199 344.2 419.199 344.793C419.199 345.634 418.456 346.156 417.517 346.156C416.591 346.156 415.977 345.726 415.88 344.774L415.873 344.708H416.591L416.597 344.774C416.662 345.328 417.041 345.608 417.549 345.608C418.065 345.608 418.423 345.308 418.423 344.826C418.423 344.33 418.104 344.056 417.438 344.05H417.308V343.521L417.438 343.515C417.947 343.508 418.319 343.215 418.319 342.712C418.319 342.302 418.039 342.021 417.602 342.021C417.158 342.021 416.832 342.308 416.78 342.823L416.773 342.889H416.062L416.069 342.823C416.147 342.021 416.708 341.473 417.68 341.473C418.58 341.473 419.095 341.962 419.095 342.628C419.095 343.149 418.789 343.534 418.28 343.678ZM421.473 341.473C422.732 341.473 423.156 342.452 423.156 343.815C423.156 345.165 422.732 346.156 421.473 346.156C420.221 346.156 419.79 345.165 419.79 343.815C419.79 342.452 420.221 341.473 421.473 341.473ZM421.473 345.608C422.119 345.608 422.38 344.969 422.38 343.815C422.38 342.647 422.119 342.021 421.473 342.021C420.834 342.021 420.566 342.647 420.566 343.815C420.566 344.969 420.834 345.608 421.473 345.608ZM427.073 341.565V341.923L424.868 346.065H424.099L426.219 342.132H423.773V341.565H427.073ZM429.464 343.032C430.423 343.032 430.951 343.671 430.951 344.532C430.951 345.53 430.221 346.156 429.301 346.156C428.244 346.156 427.651 345.504 427.651 343.997C427.651 342.249 428.453 341.473 429.444 341.473C430.273 341.473 430.814 341.956 430.899 342.706L430.905 342.771H430.162L430.149 342.706C430.044 342.249 429.803 342.021 429.392 342.021C428.831 342.021 428.453 342.491 428.407 343.71L428.649 343.306C428.89 343.104 429.138 343.032 429.464 343.032ZM429.301 345.608C429.823 345.608 430.175 345.197 430.175 344.617C430.175 344.037 429.907 343.58 429.294 343.58C428.838 343.58 428.446 343.932 428.446 344.604C428.446 345.178 428.779 345.608 429.301 345.608ZM434.907 341.565V341.923L432.703 346.065H431.933L434.053 342.132H431.607V341.565H434.907ZM437.866 343.678C438.446 343.821 438.785 344.2 438.785 344.793C438.785 345.634 438.042 346.156 437.103 346.156C436.176 346.156 435.563 345.726 435.466 344.774L435.459 344.708H436.176L436.183 344.774C436.248 345.328 436.627 345.608 437.135 345.608C437.651 345.608 438.009 345.308 438.009 344.826C438.009 344.33 437.69 344.056 437.024 344.05H436.894V343.521L437.024 343.515C437.533 343.508 437.905 343.215 437.905 342.712C437.905 342.302 437.624 342.021 437.187 342.021C436.744 342.021 436.418 342.308 436.366 342.823L436.359 342.889H435.648L435.655 342.823C435.733 342.021 436.294 341.473 437.266 341.473C438.166 341.473 438.681 341.962 438.681 342.628C438.681 343.149 438.374 343.534 437.866 343.678ZM441.861 343.684C442.331 343.834 442.722 344.239 442.722 344.8C442.722 345.784 441.913 346.163 441.059 346.163C440.139 346.163 439.402 345.784 439.402 344.8C439.402 344.239 439.813 343.834 440.289 343.684C439.891 343.534 439.604 343.202 439.604 342.699C439.604 341.956 440.178 341.473 441.105 341.473C442.037 341.473 442.605 341.956 442.605 342.699C442.605 343.208 442.272 343.541 441.861 343.684ZM441.105 342.021C440.615 342.021 440.355 342.328 440.355 342.726C440.355 343.149 440.609 343.45 441.098 343.45C441.587 343.45 441.855 343.149 441.855 342.726C441.855 342.328 441.6 342.021 441.105 342.021ZM441.072 345.615C441.672 345.615 441.946 345.282 441.946 344.806C441.946 344.369 441.685 343.997 441.065 343.997C440.459 343.997 440.172 344.363 440.172 344.806C440.172 345.282 440.478 345.615 441.072 345.615Z" fill="black"/>
<rect width="34.2865" height="5.55997" rx="2.77998" transform="matrix(-1 0 0 1 493.044 339.978)" fill="#87E8DC"/>
<rect x="246.783" y="355.196" width="273.935" height="20.6538" fill="#E6E6EE"/>
<rect width="68.4838" height="5.43522" rx="2.71761" transform="matrix(-1 0 0 1 379.403 362.806)" fill="#D5D5E1"/>
<rect width="68.4838" height="5.43522" rx="2.71761" transform="matrix(-1 0 0 1 379.403 385.634)" fill="#D5D5E1"/>
<rect width="55.4393" height="5.43522" rx="2.71761" transform="matrix(-1 0 0 1 443.538 362.806)" fill="#D5D5E1"/>
<rect width="55.4393" height="5.43522" rx="2.71761" transform="matrix(-1 0 0 1 443.538 385.634)" fill="#D5D5E1"/>
<rect width="52.1781" height="5.43522" rx="2.71761" transform="matrix(-1 0 0 1 510.935 362.806)" fill="#D5D5E1"/>
<rect width="52.1781" height="5.43522" rx="2.71761" transform="matrix(-1 0 0 1 510.935 385.634)" fill="#D5D5E1"/>
<path d="M237 357.066C237 354.833 238.81 353.022 241.044 353.022H282.96C285.194 353.022 287.004 354.833 287.004 357.066V401.157C287.004 403.39 285.194 405.201 282.96 405.201H241.044C238.81 405.201 237 403.39 237 401.157V357.066Z" fill="#F7F6FB"/>
<path d="M237.544 357.066C237.544 355.133 239.111 353.566 241.044 353.566H282.96C284.893 353.566 286.461 355.133 286.461 357.066V401.157C286.461 403.09 284.893 404.657 282.96 404.657H241.044C239.111 404.657 237.544 403.09 237.544 401.157V357.066Z" stroke="black" stroke-opacity="0.1" stroke-width="1.08704"/>
<rect x="241.348" y="359.544" width="41.3077" height="13.0445" rx="1.08704" fill="#B6F3EC"/>
<path d="M248.479 367.258C248.549 368.014 248.653 368.475 248.897 368.806H247.844C247.688 368.414 247.61 368.04 247.54 367.379C247.462 366.745 247.227 366.345 246.679 366.31C246.531 366.301 246.383 366.301 246.236 366.301H245.305V368.806H244.348V362.805H246.418C246.74 362.805 246.957 362.805 247.244 362.84C248.114 362.953 248.766 363.414 248.766 364.44C248.766 365.223 248.288 365.684 247.653 365.875C248.192 366.11 248.418 366.632 248.479 367.258ZM245.305 365.562H246.305C246.549 365.562 246.696 365.562 246.844 365.545C247.366 365.492 247.757 365.197 247.757 364.562C247.757 363.927 247.436 363.666 246.923 363.597C246.766 363.57 246.609 363.562 246.366 363.562H245.305V365.562ZM253.617 366.379C253.617 366.466 253.617 366.597 253.599 366.762H250.286C250.364 367.866 250.869 368.232 251.495 368.232C252.051 368.232 252.486 367.893 252.582 367.31H253.547C253.347 368.406 252.469 368.927 251.46 368.927C250.225 368.927 249.295 368.145 249.295 366.51C249.295 365.049 250.225 364.066 251.556 364.066C252.895 364.066 253.617 365.075 253.617 366.379ZM251.521 364.762C250.869 364.762 250.399 365.205 250.295 366.092H252.634C252.564 365.24 252.191 364.762 251.521 364.762ZM256.413 364.066C257.578 364.066 258.317 364.771 258.43 365.788H257.465C257.326 365.084 256.952 364.762 256.387 364.762C255.717 364.762 255.187 365.292 255.187 366.449C255.187 367.701 255.708 368.232 256.352 368.232C256.9 368.232 257.291 367.901 257.43 367.275H258.404C258.187 368.38 257.387 368.927 256.3 368.927C255.091 368.927 254.178 368.162 254.178 366.519C254.178 364.944 255.204 364.066 256.413 364.066ZM263.23 366.379C263.23 366.466 263.23 366.597 263.213 366.762H259.9C259.978 367.866 260.482 368.232 261.108 368.232C261.665 368.232 262.1 367.893 262.195 367.31H263.161C262.961 368.406 262.082 368.927 261.074 368.927C259.839 368.927 258.908 368.145 258.908 366.51C258.908 365.049 259.839 364.066 261.169 364.066C262.508 364.066 263.23 365.075 263.23 366.379ZM261.134 364.762C260.482 364.762 260.013 365.205 259.908 366.092H262.248C262.178 365.24 261.804 364.762 261.134 364.762ZM264.618 362.579C264.939 362.579 265.183 362.814 265.183 363.127C265.183 363.449 264.939 363.684 264.618 363.684C264.296 363.684 264.061 363.449 264.061 363.127C264.061 362.814 264.296 362.579 264.618 362.579ZM265.096 368.806H264.139V364.188H265.096V368.806ZM270.374 364.188L268.609 368.806H267.496L265.73 364.188H266.783L268.078 368.101L269.357 364.188H270.374ZM274.865 366.379C274.865 366.466 274.865 366.597 274.848 366.762H271.534C271.613 367.866 272.117 368.232 272.743 368.232C273.3 368.232 273.735 367.893 273.83 367.31H274.795C274.595 368.406 273.717 368.927 272.708 368.927C271.473 368.927 270.543 368.145 270.543 366.51C270.543 365.049 271.473 364.066 272.804 364.066C274.143 364.066 274.865 365.075 274.865 366.379ZM272.769 364.762C272.117 364.762 271.647 365.205 271.543 366.092H273.882C273.813 365.24 273.439 364.762 272.769 364.762ZM280.018 362.414V368.806H279.061V368.075L278.713 368.58C278.452 368.788 277.974 368.927 277.505 368.927C276.183 368.927 275.426 367.927 275.426 366.571C275.426 364.884 276.47 364.066 277.661 364.066C278.044 364.066 278.522 364.171 278.757 364.353L279.061 364.814V362.414H280.018ZM277.722 368.232C278.444 368.232 279.061 367.779 279.061 366.545V366.301C279.061 365.179 278.383 364.762 277.765 364.762C277.009 364.762 276.435 365.345 276.435 366.492C276.435 367.493 276.896 368.232 277.722 368.232Z" fill="black"/>
<path d="M246.818 376.815C248.384 376.815 249.201 377.684 249.323 378.867L249.331 378.954H248.384L248.366 378.867C248.201 378.058 247.705 377.545 246.801 377.545C245.688 377.545 244.983 378.502 244.983 379.919C244.983 381.406 245.696 382.328 246.757 382.328C247.662 382.328 248.157 381.798 248.323 380.989L248.34 380.902H249.288L249.279 380.989C249.158 382.163 248.279 383.059 246.714 383.059C245.001 383.059 243.948 381.789 243.948 379.963C243.948 378.076 245.131 376.815 246.818 376.815ZM252.94 382.937L252.854 382.267L252.619 382.763C252.306 382.98 251.906 383.059 251.471 383.059C250.653 383.059 249.984 382.589 249.984 381.728C249.984 380.702 250.801 380.145 252.549 380.145H252.845V380.032C252.845 379.859 252.845 379.702 252.827 379.528C252.801 379.154 252.567 378.893 252.019 378.893C251.462 378.893 251.175 379.206 251.123 379.78H250.166C250.227 378.771 250.984 378.197 252.036 378.197C253.227 378.197 253.697 378.702 253.775 379.485C253.793 379.676 253.801 379.919 253.801 380.137V381.763C253.801 382.111 253.819 382.424 253.888 382.937H252.94ZM251.819 382.363C252.419 382.363 252.845 381.954 252.845 381.206V380.78C251.723 380.693 250.993 380.946 250.993 381.65C250.993 382.137 251.314 382.363 251.819 382.363ZM259.097 379.519C259.114 379.754 259.123 379.963 259.123 380.337V382.937H258.166V380.441C258.166 380.224 258.166 380.024 258.149 379.789C258.105 379.267 257.827 378.902 257.175 378.902C256.514 378.902 255.975 379.424 255.975 380.867V382.937H255.018V378.319H255.975V379.085L256.288 378.554C256.653 378.276 256.992 378.197 257.453 378.197C258.445 378.197 259.01 378.711 259.097 379.519ZM262.179 378.197C263.345 378.197 264.084 378.902 264.197 379.919H263.231C263.092 379.215 262.718 378.893 262.153 378.893C261.484 378.893 260.953 379.424 260.953 380.58C260.953 381.833 261.475 382.363 262.118 382.363C262.666 382.363 263.058 382.033 263.197 381.406H264.171C263.953 382.511 263.153 383.059 262.066 383.059C260.857 383.059 259.944 382.293 259.944 380.65C259.944 379.076 260.97 378.197 262.179 378.197ZM268.997 380.511C268.997 380.598 268.997 380.728 268.979 380.893H265.666C265.744 381.998 266.249 382.363 266.875 382.363C267.431 382.363 267.866 382.024 267.962 381.441H268.927C268.727 382.537 267.849 383.059 266.84 383.059C265.605 383.059 264.675 382.276 264.675 380.641C264.675 379.18 265.605 378.197 266.936 378.197C268.275 378.197 268.997 379.206 268.997 380.511ZM266.901 378.893C266.249 378.893 265.779 379.337 265.675 380.224H268.014C267.944 379.372 267.57 378.893 266.901 378.893ZM270.827 376.545V381.528C270.827 381.685 270.827 381.824 270.836 381.963C270.854 382.224 270.975 382.311 271.384 382.276V382.946C271.193 382.972 270.975 382.989 270.758 382.989C270.254 382.989 269.914 382.807 269.88 382.215C269.871 382.041 269.871 381.833 269.871 381.554V376.545H270.827ZM276.156 380.511C276.156 380.598 276.156 380.728 276.139 380.893H272.825C272.903 381.998 273.408 382.363 274.034 382.363C274.591 382.363 275.025 382.024 275.121 381.441H276.086C275.886 382.537 275.008 383.059 273.999 383.059C272.764 383.059 271.834 382.276 271.834 380.641C271.834 379.18 272.764 378.197 274.095 378.197C275.434 378.197 276.156 379.206 276.156 380.511ZM274.06 378.893C273.408 378.893 272.938 379.337 272.834 380.224H275.173C275.104 379.372 274.73 378.893 274.06 378.893ZM281.309 376.545V382.937H280.352V382.207L280.004 382.711C279.743 382.92 279.265 383.059 278.795 383.059C277.474 383.059 276.717 382.059 276.717 380.702C276.717 379.015 277.761 378.197 278.952 378.197C279.335 378.197 279.813 378.302 280.048 378.484L280.352 378.945V376.545H281.309ZM279.013 382.363C279.735 382.363 280.352 381.911 280.352 380.676V380.432C280.352 379.311 279.674 378.893 279.056 378.893C278.3 378.893 277.726 379.476 277.726 380.624C277.726 381.624 278.187 382.363 279.013 382.363Z" fill="#95949A"/>
<path d="M247.131 391.103C248.07 391.225 248.714 391.825 248.714 392.886C248.714 393.947 248.001 394.556 247.131 394.669C246.853 394.703 246.636 394.703 246.314 394.703H245.305V397.069H244.348V391.068H246.314C246.636 391.068 246.853 391.068 247.131 391.103ZM246.949 393.895C247.366 393.816 247.705 393.521 247.705 392.886C247.705 392.251 247.366 391.955 246.949 391.877C246.792 391.851 246.583 391.842 246.34 391.842H245.305V393.929H246.34C246.583 393.929 246.792 393.921 246.949 393.895ZM251.491 392.338C251.622 392.338 251.717 392.355 251.813 392.39V393.138C250.935 393.077 250.387 393.529 250.387 394.669V397.069H249.43V392.451H250.387V393.234L250.778 392.599C250.987 392.434 251.256 392.338 251.491 392.338ZM254.411 392.329C255.959 392.329 256.75 393.408 256.75 394.756C256.75 396.104 255.959 397.191 254.411 397.191C252.854 397.191 252.072 396.104 252.072 394.756C252.072 393.408 252.854 392.329 254.411 392.329ZM254.411 396.495C255.246 396.495 255.733 395.799 255.733 394.756C255.733 393.712 255.246 393.025 254.411 393.025C253.567 393.025 253.08 393.712 253.08 394.756C253.08 395.799 253.567 396.495 254.411 396.495ZM261.835 392.451V395.921C261.835 396.208 261.835 396.564 261.827 396.817C261.774 398.217 260.905 398.921 259.513 398.921C258.183 398.921 257.478 398.365 257.383 397.373L257.374 397.286H258.313L258.322 397.365C258.383 397.86 258.809 398.199 259.522 398.199C260.357 398.199 260.835 397.747 260.87 396.921C260.879 396.721 260.879 396.556 260.879 396.391V396.295L260.531 396.799C260.27 397.008 259.818 397.147 259.348 397.147C258.018 397.147 257.244 396.173 257.244 394.816C257.244 393.129 258.287 392.329 259.479 392.329C259.861 392.329 260.34 392.434 260.574 392.616L260.879 393.077V392.451H261.835ZM259.539 396.451C260.261 396.451 260.879 395.999 260.879 394.764V394.564C260.879 393.442 260.2 393.025 259.583 393.025C258.826 393.025 258.252 393.582 258.252 394.73C258.252 395.73 258.713 396.451 259.539 396.451ZM265.122 392.338C265.252 392.338 265.348 392.355 265.443 392.39V393.138C264.565 393.077 264.017 393.529 264.017 394.669V397.069H263.061V392.451H264.017V393.234L264.409 392.599C264.617 392.434 264.887 392.338 265.122 392.338ZM270.024 394.643C270.024 394.73 270.024 394.86 270.007 395.025H266.694C266.772 396.13 267.276 396.495 267.902 396.495C268.459 396.495 268.894 396.156 268.989 395.573H269.955C269.755 396.669 268.876 397.191 267.868 397.191C266.633 397.191 265.702 396.408 265.702 394.773C265.702 393.312 266.633 392.329 267.963 392.329C269.302 392.329 270.024 393.338 270.024 394.643ZM267.928 393.025C267.276 393.025 266.807 393.469 266.702 394.356H269.042C268.972 393.503 268.598 393.025 267.928 393.025ZM272.42 392.329C273.481 392.329 274.073 392.929 274.177 393.773H273.203C273.107 393.286 272.82 392.999 272.351 392.999C271.899 392.999 271.681 393.251 271.681 393.599C271.681 394.016 272.02 394.19 272.707 394.373C273.716 394.634 274.247 395.034 274.247 395.851C274.247 396.747 273.455 397.191 272.446 397.191C271.42 397.191 270.664 396.73 270.533 395.686H271.499C271.612 396.277 272.003 396.512 272.481 396.512C272.925 396.512 273.281 396.321 273.281 395.921C273.281 395.521 272.968 395.303 272.186 395.095C271.342 394.877 270.716 394.521 270.716 393.712C270.716 392.851 271.394 392.329 272.42 392.329ZM276.556 392.329C277.617 392.329 278.209 392.929 278.313 393.773H277.339C277.243 393.286 276.956 392.999 276.487 392.999C276.034 392.999 275.817 393.251 275.817 393.599C275.817 394.016 276.156 394.19 276.843 394.373C277.852 394.634 278.382 395.034 278.382 395.851C278.382 396.747 277.591 397.191 276.582 397.191C275.556 397.191 274.8 396.73 274.669 395.686H275.634C275.747 396.277 276.139 396.512 276.617 396.512C277.061 396.512 277.417 396.321 277.417 395.921C277.417 395.521 277.104 395.303 276.321 395.095C275.478 394.877 274.852 394.521 274.852 393.712C274.852 392.851 275.53 392.329 276.556 392.329Z" fill="#95949A"/>
<path d="M309.832 322.367C309.832 323.107 310.397 323.672 311.136 323.672H317.224C317.963 323.672 318.528 323.107 318.528 322.367V318.889H309.832V322.367ZM317.224 315.845H316.354V315.41C316.354 315.15 316.18 314.976 315.919 314.976C315.658 314.976 315.485 315.15 315.485 315.41V315.845H312.876V315.41C312.876 315.15 312.702 314.976 312.441 314.976C312.18 314.976 312.006 315.15 312.006 315.41V315.845H311.136C310.397 315.845 309.832 316.41 309.832 317.15V318.019H318.528V317.15C318.528 316.41 317.963 315.845 317.224 315.845Z" fill="#95949A"/>
<path d="M461.021 314.976V316.108H462.154V316.142C460.229 316.413 458.757 318.078 458.757 320.07C458.757 322.256 460.535 324.033 462.72 324.033C464.905 324.033 466.682 322.256 466.682 320.07C466.682 319.561 466.569 319.085 466.399 318.655L465.369 319.085C465.494 319.414 465.55 319.731 465.55 320.082C465.55 321.656 464.294 322.912 462.72 322.912C461.146 322.912 459.889 321.656 459.889 320.082C459.889 318.508 461.146 317.251 462.72 317.251C463.059 317.251 463.388 317.308 463.716 317.432L464.101 316.368C463.841 316.278 463.569 316.232 463.286 316.187V316.119H464.418V314.987H461.021V314.976ZM466.682 316.289C466.682 316.289 462.55 319.47 462.335 319.686C462.12 319.912 462.12 320.24 462.335 320.467C462.55 320.693 462.89 320.693 463.116 320.467C463.342 320.24 466.694 316.289 466.694 316.289H466.682Z" fill="#95949A"/>
<path d="M292.518 298.01V299H287.326V291.49H288.523V298.01H292.518ZM298.416 295.963C298.416 296.072 298.416 296.235 298.394 296.442H294.247C294.345 297.824 294.977 298.282 295.76 298.282C296.457 298.282 297.001 297.857 297.121 297.128H298.329C298.079 298.499 296.979 299.152 295.717 299.152C294.171 299.152 293.006 298.173 293.006 296.127C293.006 294.298 294.171 293.068 295.836 293.068C297.513 293.068 298.416 294.331 298.416 295.963ZM295.793 293.939C294.977 293.939 294.389 294.494 294.258 295.604H297.186C297.099 294.537 296.631 293.939 295.793 293.939ZM302.884 299L302.775 298.162L302.482 298.782C302.09 299.054 301.589 299.152 301.045 299.152C300.022 299.152 299.184 298.565 299.184 297.487C299.184 296.203 300.207 295.506 302.395 295.506H302.765V295.365C302.765 295.147 302.765 294.951 302.743 294.733C302.71 294.265 302.416 293.939 301.731 293.939C301.034 293.939 300.675 294.331 300.609 295.049H299.412C299.488 293.786 300.435 293.068 301.752 293.068C303.243 293.068 303.831 293.699 303.929 294.679C303.951 294.918 303.962 295.223 303.962 295.495V297.531C303.962 297.966 303.984 298.358 304.071 299H302.884ZM301.48 298.282C302.231 298.282 302.765 297.77 302.765 296.834V296.301C301.36 296.192 300.446 296.507 300.446 297.389C300.446 297.999 300.849 298.282 301.48 298.282ZM310.796 291V299H309.599V298.086L309.164 298.717C308.837 298.978 308.239 299.152 307.651 299.152C305.996 299.152 305.049 297.901 305.049 296.203C305.049 294.091 306.356 293.068 307.847 293.068C308.326 293.068 308.924 293.199 309.218 293.427L309.599 294.004V291H310.796ZM307.923 298.282C308.826 298.282 309.599 297.716 309.599 296.17V295.865C309.599 294.461 308.75 293.939 307.977 293.939C307.03 293.939 306.312 294.668 306.312 296.105C306.312 297.356 306.889 298.282 307.923 298.282ZM320.048 298.01V299H314.856V291.49H316.053V298.01H320.048ZM321.57 291.207C321.973 291.207 322.278 291.501 322.278 291.893C322.278 292.295 321.973 292.589 321.57 292.589C321.168 292.589 320.874 292.295 320.874 291.893C320.874 291.501 321.168 291.207 321.57 291.207ZM322.169 299H320.972V293.22H322.169V299ZM325.565 293.068C326.892 293.068 327.633 293.819 327.763 294.875H326.544C326.424 294.265 326.065 293.906 325.478 293.906C324.912 293.906 324.639 294.222 324.639 294.657C324.639 295.18 325.064 295.397 325.924 295.626C327.186 295.952 327.85 296.453 327.85 297.476C327.85 298.597 326.86 299.152 325.597 299.152C324.313 299.152 323.366 298.576 323.203 297.269H324.411C324.552 298.01 325.042 298.303 325.641 298.303C326.196 298.303 326.642 298.064 326.642 297.563C326.642 297.063 326.25 296.79 325.271 296.529C324.215 296.257 323.431 295.811 323.431 294.799C323.431 293.721 324.28 293.068 325.565 293.068ZM330.306 294.102V297.128C330.306 297.324 330.306 297.454 330.317 297.607C330.36 298.173 330.578 298.293 331.361 298.216V299.044C331.057 299.087 330.774 299.109 330.48 299.109C329.576 299.109 329.185 298.771 329.13 298.01C329.119 297.814 329.119 297.563 329.119 297.237V294.102H328.303V293.264H329.119V291.882H330.306V293.264H331.438V294.102H330.306Z" fill="#73737D"/>
<path d="M277.755 288.843H276.977V287.403H275.421V288.843H269.197V287.403H267.641V288.843H266.864C266 288.843 265.308 289.491 265.308 290.283V300.363C265.308 301.155 266 301.803 266.864 301.803H277.755C278.611 301.803 279.311 301.155 279.311 300.363V290.283C279.311 289.491 278.611 288.843 277.755 288.843ZM272.309 291.003C273.601 291.003 274.643 291.968 274.643 293.163C274.643 294.358 273.601 295.323 272.309 295.323C271.018 295.323 269.975 294.358 269.975 293.163C269.975 291.968 271.018 291.003 272.309 291.003ZM276.977 299.643H267.641V298.923C267.641 297.483 270.753 296.691 272.309 296.691C273.865 296.691 276.977 297.483 276.977 298.923V299.643Z" fill="#74727F"/>
<path d="M11.9999 90.2771C11.9999 84.4197 16.7483 79.6714 22.6056 79.6714H236.864C242.721 79.6714 247.469 84.4197 247.469 90.2771V176.946C247.469 182.803 242.721 187.552 236.864 187.552H22.6056C16.7483 187.552 11.9999 182.803 11.9999 176.946V90.2771Z" fill="#F7F6FB"/>
<path d="M12.8158 90.2771C12.8158 84.8703 17.1988 80.4872 22.6056 80.4872H236.864C242.27 80.4872 246.653 84.8703 246.653 90.2771V176.946C246.653 182.353 242.27 186.736 236.864 186.736H22.6056C17.1988 186.736 12.8158 182.353 12.8158 176.946V90.2771Z" stroke="black" stroke-opacity="0.1" stroke-width="1.63164"/>
<g filter="url(#filter5_ii_2002_21)">
<path d="M219.918 61C225.108 61 229.316 65.2224 229.316 70.4309L229.593 98.3693C229.593 98.9126 229.548 99.4453 229.46 99.9635L229.316 113.384C229.283 116.475 225.659 118.111 223.332 116.085L213.816 107.8L112.959 107.8C107.768 107.8 103.56 103.578 103.56 98.3693L103.283 70.4308C103.283 65.2223 107.491 61 112.682 61L219.918 61Z" fill="#777781"/>
</g>
<g filter="url(#filter6_d_2002_21)">
<rect width="48.7536" height="6.22386" rx="3.11193" transform="matrix(-1 0 0 1 210.645 72.4102)" fill="#F6F6F8"/>
</g>
<g filter="url(#filter7_d_2002_21)">
<rect width="38.3805" height="6.22386" rx="3.11193" transform="matrix(-1 0 0 1 156.704 72.4102)" fill="#87E8DC"/>
</g>
<g filter="url(#filter8_d_2002_21)">
<rect width="92.3206" height="6.22386" rx="3.11193" transform="matrix(-1 0 0 1 210.922 84.8579)" fill="#F6F6F8"/>
</g>
<g filter="url(#filter9_d_2002_21)">
<rect x="21.3357" y="124.276" width="217.008" height="53.9401" rx="10.6057" fill="#F3F2F8"/>
<rect x="21.7436" y="124.684" width="216.192" height="53.1243" rx="10.1978" stroke="black" stroke-opacity="0.1" stroke-width="0.81582"/>
</g>
<rect x="31.7091" y="142.957" width="4.02222" height="14.8926" rx="2.01111" fill="url(#paint0_linear_2002_21)"/>
<rect x="83.1928" y="141.539" width="4.02222" height="18.4385" rx="2.01111" fill="url(#paint1_linear_2002_21)"/>
<rect x="179.727" y="141.539" width="4.02222" height="18.4385" rx="2.01111" fill="url(#paint2_linear_2002_21)"/>
<rect x="38.1449" y="137.993" width="4.02222" height="24.8211" rx="2.01111" fill="url(#paint3_linear_2002_21)"/>
<rect x="134.678" y="137.993" width="4.02222" height="24.8211" rx="2.01111" fill="url(#paint4_linear_2002_21)"/>
<rect x="89.6292" y="145.084" width="4.02222" height="11.3468" rx="2.01111" fill="url(#paint5_linear_2002_21)"/>
<rect x="186.162" y="145.084" width="4.02222" height="11.3468" rx="2.01111" fill="url(#paint6_linear_2002_21)"/>
<rect x="44.5799" y="140.12" width="4.02222" height="21.2752" rx="2.01111" fill="url(#paint7_linear_2002_21)"/>
<rect x="141.114" y="140.12" width="4.02222" height="21.2752" rx="2.01111" fill="url(#paint8_linear_2002_21)"/>
<rect x="96.0641" y="140.12" width="4.02222" height="21.2752" rx="2.01111" fill="url(#paint9_linear_2002_21)"/>
<rect x="192.598" y="140.12" width="4.02222" height="21.2752" rx="2.01111" fill="url(#paint10_linear_2002_21)"/>
<rect x="51.0159" y="142.957" width="4.02222" height="14.8926" rx="2.01111" fill="url(#paint11_linear_2002_21)"/>
<rect x="147.549" y="142.957" width="4.02222" height="14.8926" rx="2.01111" fill="url(#paint12_linear_2002_21)"/>
<rect x="102.5" y="141.539" width="4.02222" height="18.4385" rx="2.01111" fill="url(#paint13_linear_2002_21)"/>
<rect x="199.034" y="141.539" width="4.02222" height="18.4385" rx="2.01111" fill="url(#paint14_linear_2002_21)"/>
<rect x="57.4509" y="137.993" width="4.02222" height="24.8211" rx="2.01111" fill="url(#paint15_linear_2002_21)"/>
<rect x="153.985" y="137.993" width="4.02222" height="24.8211" rx="2.01111" fill="url(#paint16_linear_2002_21)"/>
<rect x="108.935" y="142.957" width="4.02222" height="14.8926" rx="2.01111" fill="url(#paint17_linear_2002_21)"/>
<rect x="205.469" y="142.957" width="4.02222" height="14.8926" rx="2.01111" fill="url(#paint18_linear_2002_21)"/>
<rect x="63.8867" y="141.539" width="4.02222" height="18.4385" rx="2.01111" fill="url(#paint19_linear_2002_21)"/>
<rect x="160.42" y="141.539" width="4.02222" height="18.4385" rx="2.01111" fill="url(#paint20_linear_2002_21)"/>
<rect x="115.371" y="141.539" width="4.02222" height="18.4385" rx="2.01111" fill="url(#paint21_linear_2002_21)"/>
<rect x="211.904" y="141.539" width="4.02222" height="18.4385" rx="2.01111" fill="url(#paint22_linear_2002_21)"/>
<rect x="70.3223" y="145.084" width="4.02222" height="11.3468" rx="2.01111" fill="url(#paint23_linear_2002_21)"/>
<rect x="166.855" y="145.084" width="4.02222" height="11.3468" rx="2.01111" fill="url(#paint24_linear_2002_21)"/>
<rect x="121.807" y="145.084" width="4.02222" height="11.3468" rx="2.01111" fill="url(#paint25_linear_2002_21)"/>
<rect x="76.7578" y="142.248" width="4.02222" height="16.311" rx="2.01111" fill="url(#paint26_linear_2002_21)"/>
<rect x="173.292" y="142.248" width="4.02222" height="16.311" rx="2.01111" fill="url(#paint27_linear_2002_21)"/>
<rect x="128.243" y="142.957" width="4.02222" height="14.8926" rx="2.01111" fill="url(#paint28_linear_2002_21)"/>
<g filter="url(#filter10_f_2002_21)">
<ellipse cx="38.4513" cy="153.839" rx="17.1156" ry="24.3768" fill="#F3F2F8"/>
</g>
<g filter="url(#filter11_f_2002_21)">
<ellipse cx="219.98" cy="153.839" rx="17.1156" ry="24.3768" fill="#F3F2F8"/>
</g>
<path d="M125.023 187C125.023 360.255 104.53 341.397 247 341.397" stroke="#DEDDE2" stroke-width="2.17409"/>
<defs>
<filter id="filter0_f_2002_21" x="241.182" y="63.4858" width="127.029" height="107.378" filterUnits="userSpaceOnUse" color-interpolation-filters="sRGB">
<feFlood flood-opacity="0" result="BackgroundImageFix"/>
<feBlend mode="normal" in="SourceGraphic" in2="BackgroundImageFix" result="shape"/>
<feGaussianBlur stdDeviation="17.5454" result="effect1_foregroundBlur_2002_21"/>
</filter>
<filter id="filter1_f_2002_21" x="327.506" y="69.0996" width="131.941" height="96.1489" filterUnits="userSpaceOnUse" color-interpolation-filters="sRGB">
<feFlood flood-opacity="0" result="BackgroundImageFix"/>
<feBlend mode="normal" in="SourceGraphic" in2="BackgroundImageFix" result="shape"/>
<feGaussianBlur stdDeviation="17.5454" result="effect1_foregroundBlur_2002_21"/>
</filter>
<filter id="filter2_di_2002_21" x="282.133" y="84.785" width="120.494" height="120.494" filterUnits="userSpaceOnUse" color-interpolation-filters="sRGB">
<feFlood flood-opacity="0" result="BackgroundImageFix"/>
<feColorMatrix in="SourceAlpha" type="matrix" values="0 0 0 0 0 0 0 0 0 0 0 0 0 0 0 0 0 0 127 0" result="hardAlpha"/>
<feOffset dy="20.3527"/>
<feGaussianBlur stdDeviation="10.5272"/>
<feComposite in2="hardAlpha" operator="out"/>
<feColorMatrix type="matrix" values="0 0 0 0 0 0 0 0 0 0 0 0 0 0 0 0 0 0 0.2 0"/>
<feBlend mode="normal" in2="BackgroundImageFix" result="effect1_dropShadow_2002_21"/>
<feBlend mode="normal" in="SourceGraphic" in2="effect1_dropShadow_2002_21" result="shape"/>
<feColorMatrix in="SourceAlpha" type="matrix" values="0 0 0 0 0 0 0 0 0 0 0 0 0 0 0 0 0 0 127 0" result="hardAlpha"/>
<feOffset dy="2.10545"/>
<feGaussianBlur stdDeviation="7.36907"/>
<feComposite in2="hardAlpha" operator="arithmetic" k2="-1" k3="1"/>
<feColorMatrix type="matrix" values="0 0 0 0 0.690196 0 0 0 0 0.690196 0 0 0 0 0.690196 0 0 0 0.7 0"/>
<feBlend mode="normal" in2="shape" result="effect2_innerShadow_2002_21"/>
</filter>
<filter id="filter3_i_2002_21" x="327.48" y="110.072" width="27.9874" height="30.7982" filterUnits="userSpaceOnUse" color-interpolation-filters="sRGB">
<feFlood flood-opacity="0" result="BackgroundImageFix"/>
<feBlend mode="normal" in="SourceGraphic" in2="BackgroundImageFix" result="shape"/>
<feColorMatrix in="SourceAlpha" type="matrix" values="0 0 0 0 0 0 0 0 0 0 0 0 0 0 0 0 0 0 127 0" result="hardAlpha"/>
<feOffset dy="2.81091"/>
<feGaussianBlur stdDeviation="1.40546"/>
<feComposite in2="hardAlpha" operator="arithmetic" k2="-1" k3="1"/>
<feColorMatrix type="matrix" values="0 0 0 0 0 0 0 0 0 0 0 0 0 0 0 0 0 0 0.25 0"/>
<feBlend mode="normal" in2="shape" result="effect1_innerShadow_2002_21"/>
</filter>
<filter id="filter4_f_2002_21" x="422.431" y="0.431175" width="159.796" height="286.98" filterUnits="userSpaceOnUse" color-interpolation-filters="sRGB">
<feFlood flood-opacity="0" result="BackgroundImageFix"/>
<feBlend mode="normal" in="SourceGraphic" in2="BackgroundImageFix" result="shape"/>
<feGaussianBlur stdDeviation="22.2844" result="effect1_foregroundBlur_2002_21"/>
</filter>
<filter id="filter5_ii_2002_21" x="101.208" y="58.9254" width="130.46" height="60.1282" filterUnits="userSpaceOnUse" color-interpolation-filters="sRGB">
<feFlood flood-opacity="0" result="BackgroundImageFix"/>
<feBlend mode="normal" in="SourceGraphic" in2="BackgroundImageFix" result="shape"/>
<feColorMatrix in="SourceAlpha" type="matrix" values="0 0 0 0 0 0 0 0 0 0 0 0 0 0 0 0 0 0 127 0" result="hardAlpha"/>
<feOffset dx="2.07462" dy="2.07462"/>
<feGaussianBlur stdDeviation="2.59327"/>
<feComposite in2="hardAlpha" operator="arithmetic" k2="-1" k3="1"/>
<feColorMatrix type="matrix" values="0 0 0 0 0 0 0 0 0 0 0 0 0 0 0 0 0 0 0.1 0"/>
<feBlend mode="normal" in2="shape" result="effect1_innerShadow_2002_21"/>
<feColorMatrix in="SourceAlpha" type="matrix" values="0 0 0 0 0 0 0 0 0 0 0 0 0 0 0 0 0 0 127 0" result="hardAlpha"/>
<feOffset dx="-2.07462" dy="-2.07462"/>
<feGaussianBlur stdDeviation="5.18655"/>
<feComposite in2="hardAlpha" operator="arithmetic" k2="-1" k3="1"/>
<feColorMatrix type="matrix" values="0 0 0 0 0 0 0 0 0 0 0 0 0 0 0 0 0 0 0.1 0"/>
<feBlend mode="normal" in2="effect1_innerShadow_2002_21" result="effect2_innerShadow_2002_21"/>
</filter>
<filter id="filter6_d_2002_21" x="157.742" y="72.4102" width="57.0521" height="14.5221" filterUnits="userSpaceOnUse" color-interpolation-filters="sRGB">
<feFlood flood-opacity="0" result="BackgroundImageFix"/>
<feColorMatrix in="SourceAlpha" type="matrix" values="0 0 0 0 0 0 0 0 0 0 0 0 0 0 0 0 0 0 127 0" result="hardAlpha"/>
<feOffset dy="4.14924"/>
<feGaussianBlur stdDeviation="2.07462"/>
<feComposite in2="hardAlpha" operator="out"/>
<feColorMatrix type="matrix" values="0 0 0 0 0 0 0 0 0 0 0 0 0 0 0 0 0 0 0.1 0"/>
<feBlend mode="normal" in2="BackgroundImageFix" result="effect1_dropShadow_2002_21"/>
<feBlend mode="normal" in="SourceGraphic" in2="effect1_dropShadow_2002_21" result="shape"/>
</filter>
<filter id="filter7_d_2002_21" x="114.175" y="72.4102" width="46.679" height="14.5221" filterUnits="userSpaceOnUse" color-interpolation-filters="sRGB">
<feFlood flood-opacity="0" result="BackgroundImageFix"/>
<feColorMatrix in="SourceAlpha" type="matrix" values="0 0 0 0 0 0 0 0 0 0 0 0 0 0 0 0 0 0 127 0" result="hardAlpha"/>
<feOffset dy="4.14924"/>
<feGaussianBlur stdDeviation="2.07462"/>
<feComposite in2="hardAlpha" operator="out"/>
<feColorMatrix type="matrix" values="0 0 0 0 0 0 0 0 0 0 0 0 0 0 0 0 0 0 0.1 0"/>
<feBlend mode="normal" in2="BackgroundImageFix" result="effect1_dropShadow_2002_21"/>
<feBlend mode="normal" in="SourceGraphic" in2="effect1_dropShadow_2002_21" result="shape"/>
</filter>
<filter id="filter8_d_2002_21" x="114.452" y="84.8579" width="100.619" height="14.5221" filterUnits="userSpaceOnUse" color-interpolation-filters="sRGB">
<feFlood flood-opacity="0" result="BackgroundImageFix"/>
<feColorMatrix in="SourceAlpha" type="matrix" values="0 0 0 0 0 0 0 0 0 0 0 0 0 0 0 0 0 0 127 0" result="hardAlpha"/>
<feOffset dy="4.14924"/>
<feGaussianBlur stdDeviation="2.07462"/>
<feComposite in2="hardAlpha" operator="out"/>
<feColorMatrix type="matrix" values="0 0 0 0 0 0 0 0 0 0 0 0 0 0 0 0 0 0 0.1 0"/>
<feBlend mode="normal" in2="BackgroundImageFix" result="effect1_dropShadow_2002_21"/>
<feBlend mode="normal" in="SourceGraphic" in2="effect1_dropShadow_2002_21" result="shape"/>
</filter>
<filter id="filter9_d_2002_21" x="0.940188" y="112.854" width="257.799" height="94.731" filterUnits="userSpaceOnUse" color-interpolation-filters="sRGB">
<feFlood flood-opacity="0" result="BackgroundImageFix"/>
<feColorMatrix in="SourceAlpha" type="matrix" values="0 0 0 0 0 0 0 0 0 0 0 0 0 0 0 0 0 0 127 0" result="hardAlpha"/>
<feMorphology radius="1.63164" operator="dilate" in="SourceAlpha" result="effect1_dropShadow_2002_21"/>
<feOffset dy="8.97402"/>
<feGaussianBlur stdDeviation="9.38193"/>
<feComposite in2="hardAlpha" operator="out"/>
<feColorMatrix type="matrix" values="0 0 0 0 0 0 0 0 0 0 0 0 0 0 0 0 0 0 0.1 0"/>
<feBlend mode="normal" in2="BackgroundImageFix" result="effect1_dropShadow_2002_21"/>
<feBlend mode="normal" in="SourceGraphic" in2="effect1_dropShadow_2002_21" result="shape"/>
</filter>
<filter id="filter10_f_2002_21" x="10.9626" y="119.089" width="54.9774" height="69.4996" filterUnits="userSpaceOnUse" color-interpolation-filters="sRGB">
<feFlood flood-opacity="0" result="BackgroundImageFix"/>
<feBlend mode="normal" in="SourceGraphic" in2="BackgroundImageFix" result="shape"/>
<feGaussianBlur stdDeviation="5.18655" result="effect1_foregroundBlur_2002_21"/>
</filter>
<filter id="filter11_f_2002_21" x="192.492" y="119.089" width="54.9775" height="69.4996" filterUnits="userSpaceOnUse" color-interpolation-filters="sRGB">
<feFlood flood-opacity="0" result="BackgroundImageFix"/>
<feBlend mode="normal" in="SourceGraphic" in2="BackgroundImageFix" result="shape"/>
<feGaussianBlur stdDeviation="5.18655" result="effect1_foregroundBlur_2002_21"/>
</filter>
<linearGradient id="paint0_linear_2002_21" x1="32.7968" y1="158.693" x2="39.4966" y2="145.768" gradientUnits="userSpaceOnUse">
<stop stop-color="#2B2C31"/>
<stop offset="1" stop-color="#858897"/>
</linearGradient>
<linearGradient id="paint1_linear_2002_21" x1="84.2806" y1="161.021" x2="93.509" y2="146.641" gradientUnits="userSpaceOnUse">
<stop stop-color="#2B2C31"/>
<stop offset="1" stop-color="#858897"/>
</linearGradient>
<linearGradient id="paint2_linear_2002_21" x1="180.814" y1="161.021" x2="190.043" y2="146.641" gradientUnits="userSpaceOnUse">
<stop stop-color="#2B2C31"/>
<stop offset="1" stop-color="#858897"/>
</linearGradient>
<linearGradient id="paint3_linear_2002_21" x1="39.2326" y1="164.219" x2="52.7526" y2="148.569" gradientUnits="userSpaceOnUse">
<stop stop-color="#2B2C31"/>
<stop offset="1" stop-color="#858897"/>
</linearGradient>
<linearGradient id="paint4_linear_2002_21" x1="135.765" y1="164.219" x2="149.285" y2="148.569" gradientUnits="userSpaceOnUse">
<stop stop-color="#2B2C31"/>
<stop offset="1" stop-color="#858897"/>
</linearGradient>
<linearGradient id="paint5_linear_2002_21" x1="90.7169" y1="157.074" x2="94.9854" y2="146.266" gradientUnits="userSpaceOnUse">
<stop stop-color="#2B2C31"/>
<stop offset="1" stop-color="#858897"/>
</linearGradient>
<linearGradient id="paint6_linear_2002_21" x1="187.25" y1="157.074" x2="191.518" y2="146.266" gradientUnits="userSpaceOnUse">
<stop stop-color="#2B2C31"/>
<stop offset="1" stop-color="#858897"/>
</linearGradient>
<linearGradient id="paint7_linear_2002_21" x1="45.6677" y1="162.6" x2="56.8711" y2="147.47" gradientUnits="userSpaceOnUse">
<stop stop-color="#2B2C31"/>
<stop offset="1" stop-color="#858897"/>
</linearGradient>
<linearGradient id="paint8_linear_2002_21" x1="142.202" y1="162.6" x2="153.405" y2="147.47" gradientUnits="userSpaceOnUse">
<stop stop-color="#2B2C31"/>
<stop offset="1" stop-color="#858897"/>
</linearGradient>
<linearGradient id="paint9_linear_2002_21" x1="97.1519" y1="162.6" x2="108.355" y2="147.47" gradientUnits="userSpaceOnUse">
<stop stop-color="#2B2C31"/>
<stop offset="1" stop-color="#858897"/>
</linearGradient>
<linearGradient id="paint10_linear_2002_21" x1="193.685" y1="162.6" x2="204.889" y2="147.47" gradientUnits="userSpaceOnUse">
<stop stop-color="#2B2C31"/>
<stop offset="1" stop-color="#858897"/>
</linearGradient>
<linearGradient id="paint11_linear_2002_21" x1="52.1037" y1="158.693" x2="58.8035" y2="145.768" gradientUnits="userSpaceOnUse">
<stop stop-color="#2B2C31"/>
<stop offset="1" stop-color="#858897"/>
</linearGradient>
<linearGradient id="paint12_linear_2002_21" x1="148.637" y1="158.693" x2="155.337" y2="145.768" gradientUnits="userSpaceOnUse">
<stop stop-color="#2B2C31"/>
<stop offset="1" stop-color="#858897"/>
</linearGradient>
<linearGradient id="paint13_linear_2002_21" x1="103.588" y1="161.021" x2="112.816" y2="146.641" gradientUnits="userSpaceOnUse">
<stop stop-color="#2B2C31"/>
<stop offset="1" stop-color="#858897"/>
</linearGradient>
<linearGradient id="paint14_linear_2002_21" x1="200.121" y1="161.021" x2="209.35" y2="146.641" gradientUnits="userSpaceOnUse">
<stop stop-color="#2B2C31"/>
<stop offset="1" stop-color="#858897"/>
</linearGradient>
<linearGradient id="paint15_linear_2002_21" x1="58.5387" y1="164.219" x2="72.0587" y2="148.569" gradientUnits="userSpaceOnUse">
<stop stop-color="#2B2C31"/>
<stop offset="1" stop-color="#858897"/>
</linearGradient>
<linearGradient id="paint16_linear_2002_21" x1="155.073" y1="164.219" x2="168.593" y2="148.569" gradientUnits="userSpaceOnUse">
<stop stop-color="#2B2C31"/>
<stop offset="1" stop-color="#858897"/>
</linearGradient>
<linearGradient id="paint17_linear_2002_21" x1="110.023" y1="158.693" x2="116.723" y2="145.768" gradientUnits="userSpaceOnUse">
<stop stop-color="#2B2C31"/>
<stop offset="1" stop-color="#858897"/>
</linearGradient>
<linearGradient id="paint18_linear_2002_21" x1="206.557" y1="158.693" x2="213.257" y2="145.768" gradientUnits="userSpaceOnUse">
<stop stop-color="#2B2C31"/>
<stop offset="1" stop-color="#858897"/>
</linearGradient>
<linearGradient id="paint19_linear_2002_21" x1="64.9745" y1="161.021" x2="74.2029" y2="146.641" gradientUnits="userSpaceOnUse">
<stop stop-color="#2B2C31"/>
<stop offset="1" stop-color="#858897"/>
</linearGradient>
<linearGradient id="paint20_linear_2002_21" x1="161.508" y1="161.021" x2="170.736" y2="146.641" gradientUnits="userSpaceOnUse">
<stop stop-color="#2B2C31"/>
<stop offset="1" stop-color="#858897"/>
</linearGradient>
<linearGradient id="paint21_linear_2002_21" x1="116.459" y1="161.021" x2="125.687" y2="146.641" gradientUnits="userSpaceOnUse">
<stop stop-color="#2B2C31"/>
<stop offset="1" stop-color="#858897"/>
</linearGradient>
<linearGradient id="paint22_linear_2002_21" x1="212.992" y1="161.021" x2="222.221" y2="146.641" gradientUnits="userSpaceOnUse">
<stop stop-color="#2B2C31"/>
<stop offset="1" stop-color="#858897"/>
</linearGradient>
<linearGradient id="paint23_linear_2002_21" x1="71.41" y1="157.074" x2="75.6785" y2="146.266" gradientUnits="userSpaceOnUse">
<stop stop-color="#2B2C31"/>
<stop offset="1" stop-color="#858897"/>
</linearGradient>
<linearGradient id="paint24_linear_2002_21" x1="167.943" y1="157.074" x2="172.212" y2="146.266" gradientUnits="userSpaceOnUse">
<stop stop-color="#2B2C31"/>
<stop offset="1" stop-color="#858897"/>
</linearGradient>
<linearGradient id="paint25_linear_2002_21" x1="122.895" y1="157.074" x2="127.163" y2="146.266" gradientUnits="userSpaceOnUse">
<stop stop-color="#2B2C31"/>
<stop offset="1" stop-color="#858897"/>
</linearGradient>
<linearGradient id="paint26_linear_2002_21" x1="77.8456" y1="159.482" x2="85.5564" y2="145.9" gradientUnits="userSpaceOnUse">
<stop stop-color="#2B2C31"/>
<stop offset="1" stop-color="#858897"/>
</linearGradient>
<linearGradient id="paint27_linear_2002_21" x1="174.379" y1="159.482" x2="182.09" y2="145.9" gradientUnits="userSpaceOnUse">
<stop stop-color="#2B2C31"/>
<stop offset="1" stop-color="#858897"/>
</linearGradient>
<linearGradient id="paint28_linear_2002_21" x1="129.33" y1="158.693" x2="136.03" y2="145.768" gradientUnits="userSpaceOnUse">
<stop stop-color="#2B2C31"/>
<stop offset="1" stop-color="#858897"/>
</linearGradient>
<clipPath id="clip0_2002_21">
<rect x="339.293" y="76" width="69.2679" height="68.9167" rx="9.12361" transform="rotate(41.7439 339.293 76)" fill="white"/>
</clipPath>
</defs>
</svg>
